<svg width="19" height="15" viewBox="0 0 19 15" fill="none" xmlns="http://www.w3.org/2000/svg">
<path d="M18.0625 7.48264L6.52083 7.48264M18.0625 1.71181L6.52083 1.71181M18.0625 13.2535L6.52083 13.2535M2.67361 7.48264C2.67361 8.01383 2.243 8.44444 1.71181 8.44444C1.18061 8.44444 0.75 8.01383 0.75 7.48264C0.75 6.95145 1.18061 6.52083 1.71181 6.52083C2.243 6.52083 2.67361 6.95145 2.67361 7.48264ZM2.67361 1.71181C2.67361 2.243 2.243 2.67361 1.71181 2.67361C1.18061 2.67361 0.75 2.243 0.75 1.71181C0.75 1.18061 1.18061 0.75 1.71181 0.75C2.243 0.75 2.67361 1.18061 2.67361 1.71181ZM2.67361 13.2535C2.67361 13.7847 2.243 14.2153 1.71181 14.2153C1.18061 14.2153 0.75 13.7847 0.75 13.2535C0.75 12.7223 1.18061 12.2917 1.71181 12.2917C2.243 12.2917 2.67361 12.7223 2.67361 13.2535Z" stroke="#00305B" stroke-width="1.5" stroke-linecap="round" stroke-linejoin="round"/>
</svg>
