<svg width="40" height="40" viewBox="0 0 40 40" fill="none" xmlns="http://www.w3.org/2000/svg">
<rect width="40" height="40" rx="5" fill="#C9D8E9"/>
<path d="M24.9918 28.4026V22.9085C24.9918 21.6545 23.8447 20.6385 22.4289 20.6385H18.9277" stroke="#00305B" stroke-width="1.5"/>
<path d="M19 11.5922C20.9497 11.5922 22.5302 13.1727 22.5303 15.1224C22.5303 17.0722 20.9498 18.6527 19 18.6527C17.0503 18.6527 15.4697 17.0722 15.4697 15.1224C15.4698 13.1727 17.0503 11.5922 19 11.5922Z" stroke="#00305B" stroke-width="1.5"/>
<path d="M29.2383 20.8402C31.158 21.4835 32.1383 25.1652 30.7414 28.6359" stroke="#00305B" stroke-width="1.5"/>
<circle cx="28.7869" cy="20.1979" r="1.86895" fill="#00305B"/>
<line x1="5.38867" y1="28.4078" x2="34.6111" y2="28.4078" stroke="#00305B" stroke-width="1.5"/>
<path d="M13.224 28.4027V22.9086C13.224 21.6546 14.3711 20.6387 15.7869 20.6387H19.2881" stroke="#00305B" stroke-width="1.5"/>
</svg>
